<svg xmlns="http://www.w3.org/2000/svg" viewBox="0 0 512 512">
  <title>CSS3 Logo</title>
  <path fill="#264DE4" d="M71.357,460.819L30.272,0h451.456l-41.129,460.746L255.724,512"/>
  <path fill="#2965F1" d="M405.388,431.408l35.148-393.7H256v434.759"/>
  <path fill="#EBEBEB" d="M124.46,208.59l5.065,56.517H256V208.59 M119.419,150.715l5.21,56.517H256v-56.517 M256,355.372l-.248.066-63.022-17.014-4.031-45.163H132.48l7.922,88.756L255.865,414.2l.383-.106"/>
  <path fill="#FFF" d="M255.857,208.59v56.517H325.56l-6.491,73.026L255.857,355.4v58.8l118.618-32.823L384,93.94H255.857v56.776h69.663l-5.057,57.874z"/>
</svg> 