<svg xmlns="http://www.w3.org/2000/svg" viewBox="0 0 512 512">
  <path d="M503.5 204.6L308.9 9.4c-12.5-12.5-32.7-12.5-45.2 0l-39.5 39.5 56.9 57c13.2-4.5 28.3-1.5 38.8 9 10.5 10.5 13.5 25.6 9 38.9l54.8 54.8c13.2-4.5 28.3-1.5 38.9 9 14.8 14.8 14.8 38.7 0 53.5-14.8 14.8-38.7 14.8-53.5 0-11.1-11.1-13.9-27.4-8.3-41l-51.1-51.1v134.3c3.6 1.8 7 4.2 10 7.1 14.8 14.8 14.8 38.7 0 53.5-14.8 14.8-38.9 14.8-53.6 0-14.8-14.8-14.8-38.7 0-53.5 3.7-3.7 7.9-6.4 12.3-8.3v-135.5c-4.5-1.9-8.7-4.7-12.3-8.3-11.1-11.1-13.8-27.4-8.2-41l-56-56.1-148.9 149c-12.5 12.5-12.5 32.7 0 45.2l194.6 195.3c12.5 12.5 32.7 12.5 45.2 0l194.6-195.3c12.5-12.5 12.5-32.7 0-45.2z" fill="#f05032"/>
</svg> 