<svg xmlns="http://www.w3.org/2000/svg" viewBox="0 0 398.25 439.875">
  <defs>
    <style>.cls-1{fill:#c21325;}.cls-2{fill:#fff;}</style>
  </defs>
  <path class="cls-1" d="M334.05,218.49c0-30.21-20.38-55.46-47.67-61.45l75.52-42.64c3-1.71,5-5,5-8.64a10.19,10.19,0,0,0-14.82-9.09L265.31,154.9a64.74,64.74,0,0,0-10.43-.85c-36.34,0-65.92,30.61-65.92,68.44,0,24.43,12.36,45.83,31,58.21,0,0,28.82,20.48,19.63,38.06-3.13,6-9.74-23.84-35.27-7.27-4.09,2.66-10.53.57-10.53-4.9V190.42c0-21.57-20.42-33.23-41.2-23.14l-91.88,44.63a31.41,31.41,0,0,0-17.74,28.34V289.1c0,22.1,16.8,33.28,16.8,33.28l82.84,47.63c18.81,10.83,39.48,1.33,39.48-17.73V341.84c0-4.85-5.27-7.89-9.49-5.46-2.3,1.32-7.77,4.43-10.53,5.69-2.2,1-5.8.37-5.8-2.27v-39.3c0-3.3,1.14-5.08,2.64-6.56a7.85,7.85,0,0,1,6.65-2c2.93.31,5.22,2.6,5.22,5.54v13.52a5.8,5.8,0,0,0,8.59,5.06l26.62-15.22c4.11-2.35,4.11-8.3,0-10.65l-26.8-15.34c-.84-.48-1.78-1.58-1.78-3.08V236.46a5.41,5.41,0,0,1,8.08-4.76l29.92,17.27a5.82,5.82,0,0,0,8.59-5.09V200.81c0-3.58,3.57-4.44,4.21-4.44,2.3,0,5.16,2.4,5.16,4.22h0c.12,7.38.62,31.85,1.81,52.45A4.44,4.44,0,0,0,233,257c16.1,5.33,32.88,4.14,45.35-2.74,3.72-2.06,8.33.91,8.33,5.1,0,5.65-3.53,11.2-9.77,16.33-9.71,8-23.32,12.22-38.09,12.22a73.65,73.65,0,0,1-22.15-3.33c-3.85-1.19-7.12,2.65-6,6.41,13.95,47.52,68.84,78.35,120.42,46.61C357.08,323.41,375,295,375,261.72c0-1.78-.06-3.54-.18-5.29C358.1,270.76,334.05,247.6,334.05,218.49Z"/>
  <path class="cls-2" d="M260.13,237.92a17.78,17.78,0,0,1-18.37-17.14,17.78,17.78,0,0,1,17.38-18.42A17.78,17.78,0,0,1,277.51,220a17.77,17.77,0,0,1-17.38,18.42Z"/>
</svg> 