<svg xmlns="http://www.w3.org/2000/svg" viewBox="0 0 512 512">
  <rect width="512" height="512" rx="50" fill="#3178c6"/>
  <path fill="#fff" d="M317 407v50c8.1 4.2 18 7.3 29 9.4s23 3.1 35 3.1c12 0 23-1.1 34-3.4 11-2.3 20-6.1 28-11 8.1-5.3 15-12 19-21s7.1-19 7.1-32c0-9.1-1.4-17-4.1-24s-6.6-13-12-18c-5.1-5.3-11-10-18-14s-15-8.2-24-12c-6.6-2.7-12-5.3-18-7.9-5.2-2.6-9.6-5.2-13-7.8-3.4-2.7-6-5.5-7.8-8.4-1.8-3-2.7-6.3-2.7-10 0-3.4 0.89-6.5 2.7-9.3 1.8-2.8 4.2-5.1 7.3-7.1s6.8-3.5 11-4.6c4.1-1.1 8.6-1.6 13-1.6 3.4 0 7.1 0.29 11 0.87 3.8 0.58 7.7 1.4 12 2.6 4 1.2 8 2.5 12 4.1 4 1.7 7.9 3.5 12 5.4V276c-7.4-2.8-15-4.9-23-6.4s-17-2.2-28-2.2c-12 0-23 1.1-33 3.4-9.9 2.3-19 5.9-27 11-7.7 5-14 11-18 19-4.3 8-6.4 17-6.4 28 0 14 3.1 26 9.3 35 6.2 8.9 14 16 23 22 9.3 5.8 20 11 31 15 12 4.3 23 8.3 33 12 9.9 3.9 18 7.8 25 12 6.7 4.3 12 9.2 15 15 3.5 5.8 5.3 13 5.3 21 0 4.3-0.87 8.2-2.6 12-1.7 3.8-4.2 7.2-7.5 10-3.3 2.8-7.3 5-12 6.5-4.7 1.5-9.9 2.3-16 2.3-10 0-20-1.8-30-5.4-10-3.6-20-8.8-30-16zm-84-123h64v-41H118v41h64v183h51z"/>
</svg> 