<svg xmlns="http://www.w3.org/2000/svg" viewBox="0 0 410 404">
  <path d="M399.641 59.525l-183.998 329.02c-3.799 6.793-13.559 6.833-17.415.073L10.582 59.556C6.38 52.19 12.68 43.266 21.028 44.76l184.195 32.895c1.175.21 2.378.208 3.553-.006l180.343-32.87c8.32-1.517 14.649 7.337 10.522 14.747z" fill="url(#a)"/>
  <path d="M292.965 1.574L156.801 28.255a5 5 0 0 0-4.03 4.611l-8.376 141.464c-.197 3.332 2.863 5.918 6.115 5.168l37.91-8.749c3.547-.818 6.752 2.306 6.023 5.873l-11.263 55.153c-.758 3.712 2.727 6.886 6.352 5.785l23.415-7.114c3.63-1.102 7.118 2.081 6.35 5.796l-17.899 86.633c-1.12 5.419 6.088 8.374 9.094 3.728l2.008-3.103 110.954-221.428c1.858-3.707-1.346-7.935-5.396-7.132l-39.034 7.709c-3.66.723-6.862-2.439-6.01-5.968l24.42-101.772c.855-3.535-2.364-6.698-6.026-5.945z" fill="url(#b)"/>
  <defs>
    <linearGradient id="a" x1="6" y1="33" x2="235" y2="344" gradientUnits="userSpaceOnUse">
      <stop stop-color="#41D1FF"/>
      <stop offset="1" stop-color="#BD34FE"/>
    </linearGradient>
    <linearGradient id="b" x1="194.651" y1="8.818" x2="236.076" y2="292.989" gradientUnits="userSpaceOnUse">
      <stop stop-color="#FFEA83"/>
      <stop offset=".083" stop-color="#FFDD35"/>
      <stop offset="1" stop-color="#FFA800"/>
    </linearGradient>
  </defs>
</svg> 